<svg xmlns="http://www.w3.org/2000/svg" viewBox="0 0 371 152.66"><defs><style>.cls-1{fill:#f4516c;}.cls-2{fill:#b3b3b3;}</style></defs><title>inny-logo</title><g id="Capa_2" data-name="Capa 2"><g id="Capa_1-2" data-name="Capa 1"><path class="cls-1" d="M108.5,0A49.56,49.56,0,0,0,59,49.5V94H89V49.5a19.5,19.5,0,0,1,39,0V94h30V49.5A49.56,49.56,0,0,0,108.5,0Z"/><path class="cls-1" d="M49,94V64A19.51,19.51,0,0,1,30,44.51V0H0v44.5A49.55,49.55,0,0,0,49,94Z"/><path class="cls-1" d="M217.5,0A49.56,49.56,0,0,0,168,49.5V94h30V49.5a19.5,19.5,0,0,1,39,0V94h30V49.5A49.56,49.56,0,0,0,217.5,0Z"/><path class="cls-1" d="M341,0V20.06a19.5,19.5,0,1,1-39,0V0H272V20.06a50,50,0,0,0,34,47.42V94h30V67.81a50,50,0,0,0,35-47.75V0Z"/><path class="cls-2" d="M23.58,148.37q-4.5-4.29-4.5-13.27t4.5-13.28q4.5-4.3,13.49-4.3h5.4a17,17,0,0,1,9.73,2.86,9,9,0,0,1,4.23,7.83,2.36,2.36,0,0,1-.85,2,2.82,2.82,0,0,1-1.65.62H51.06q-2.23,0-3.47-2.67a6.14,6.14,0,0,0-6-3.83H37.31q-5.31,0-7.2,2.28t-1.89,8.43q0,6.16,1.89,8.45t7.2,2.29h4.82A6.09,6.09,0,0,0,48.07,142q1.24-2.69,3.49-2.69h2.88a2.18,2.18,0,0,1,1.81.85,2.92,2.92,0,0,1,.67,1.84,9,9,0,0,1-4.22,7.82A17,17,0,0,1,43,152.66H37.07Q28.08,152.66,23.58,148.37Z"/><path class="cls-2" d="M61.62,150.14V120.07a2.32,2.32,0,0,1,.65-1.67,2.14,2.14,0,0,1,1.6-.68h9.86a2.83,2.83,0,0,1,1.79.68A3.31,3.31,0,0,1,76.67,120l7.15,20.7L91,120a3.3,3.3,0,0,1,1.14-1.62,2.83,2.83,0,0,1,1.79-.68h9.86a2.1,2.1,0,0,1,1.59.68,2.34,2.34,0,0,1,.64,1.67v30.08a2.25,2.25,0,0,1-.67,1.66,2.19,2.19,0,0,1-1.61.67H99.36a2.19,2.19,0,0,1-1.61-.67,2.25,2.25,0,0,1-.67-1.66V126.46l-8.56,23.82a3.45,3.45,0,0,1-1.19,1.54,2.92,2.92,0,0,1-1.79.64H82.08a2.87,2.87,0,0,1-1.78-.64,3.66,3.66,0,0,1-1.2-1.54l-8.53-23.82v23.68a2.25,2.25,0,0,1-.67,1.66,2.2,2.2,0,0,1-1.61.67H63.92a2.3,2.3,0,0,1-2.3-2.33Z"/><path class="cls-2" d="M111,143.57a2.36,2.36,0,0,1,.85-2,2.81,2.81,0,0,1,1.65-.62h2.88a3.59,3.59,0,0,1,3.32,2.38q1.14,2.38,5.11,2.38l8.48.17q4.26,0,4.27-2.79,0-2.11-5.21-3.32-2.33-.56-5.14-1.1t-5.59-1.37a34.52,34.52,0,0,1-5.1-1.94,9.91,9.91,0,0,1-3.77-3.07,7.51,7.51,0,0,1-1.44-4.59,8.86,8.86,0,0,1,3.47-7.5q3.47-2.63,11.92-2.63l6.16.15a16.23,16.23,0,0,1,9,2.56q4,2.56,4,6.39a2.4,2.4,0,0,1-.85,2.06,2.75,2.75,0,0,1-1.62.63h-2.88a3.59,3.59,0,0,1-3.32-2.39q-1.14-2.39-5.11-2.39l-7.29-.15q-4.27,0-4.27,2.79,0,1.53,2.7,2.5a44.56,44.56,0,0,0,6.54,1.71q3.84.74,7.72,1.78a16.06,16.06,0,0,1,6.58,3.43,7.62,7.62,0,0,1,2.7,5.95,8.85,8.85,0,0,1-3.48,7.5q-3.48,2.63-11.91,2.63l-7.34-.15a16.3,16.3,0,0,1-9-2.56Q111,147.4,111,143.57Z"/></g></g></svg>