<?xml version="1.0" standalone="no"?>
<!DOCTYPE svg PUBLIC "-//W3C//DTD SVG 20010904//EN"
 "http://www.w3.org/TR/2001/REC-SVG-20010904/DTD/svg10.dtd">
<svg version="1.0" xmlns="http://www.w3.org/2000/svg"
 width="1113.000000pt" height="1113.000000pt" viewBox="0 0 1113.000000 1113.000000"
 preserveAspectRatio="xMidYMid meet">
<metadata>
Created by potrace 1.11, written by Peter Selinger 2001-2013
</metadata>
<g transform="translate(0.000000,1113.000000) scale(0.100000,-0.100000)"
fill="#000000" stroke="none">
<path d="M1 6283 c0 -401 5 -755 10 -788 5 -33 11 -71 13 -85 32 -207 156
-482 295 -655 93 -115 244 -252 367 -330 121 -78 323 -165 434 -189 116 -25
178 -35 258 -41 l92 -7 0 450 0 450 -67 10 c-187 28 -347 141 -432 304 -41 80
-60 140 -66 208 -2 25 -4 350 -4 723 l-1 677 -450 0 -451 0 2 -727z"/>
<path d="M3100 7003 c-185 -25 -361 -78 -503 -149 -91 -45 -232 -135 -277
-176 -14 -13 -48 -43 -74 -67 -45 -40 -108 -108 -161 -172 -129 -155 -258
-443 -291 -649 -2 -14 -8 -52 -13 -85 -5 -33 -10 -382 -10 -787 l-1 -728 450
0 450 0 1 698 c0 383 3 711 5 727 17 114 80 233 168 320 124 123 263 178 436
171 155 -6 276 -59 386 -170 79 -79 146 -201 160 -291 5 -27 9 -53 10 -57 1
-5 2 -321 3 -703 l1 -695 451 0 450 0 -4 768 -3 767 -27 110 c-84 347 -234
597 -492 819 -205 178 -438 285 -735 341 -39 7 -340 14 -380 8z"/>
<path d="M6365 7003 c-109 -14 -264 -51 -359 -87 -470 -178 -831 -594 -930
-1072 -8 -38 -18 -85 -22 -104 -4 -19 -9 -376 -11 -792 l-4 -758 450 0 451 0
1 698 c0 383 2 705 4 716 27 144 75 237 171 333 55 54 92 81 156 111 101 49
165 62 283 57 96 -3 156 -18 230 -58 11 -6 33 -17 48 -25 44 -22 162 -142 193
-197 84 -146 84 -141 84 -937 l0 -698 451 0 450 0 -4 758 c-2 416 -7 773 -11
792 -3 19 -11 55 -17 80 -5 25 -11 55 -14 67 -2 12 -18 63 -35 115 -173 503
-595 874 -1117 979 -102 20 -358 33 -448 22z"/>
<path d="M8161 6643 c1 -314 4 -385 21 -483 88 -522 447 -964 936 -1151 l62
-24 0 -397 0 -398 450 0 450 0 0 393 0 394 43 12 c60 18 250 112 327 162 347
227 589 597 659 1009 15 86 18 173 20 478 l2 372 -451 0 -450 0 -1 -327 c0
-181 -2 -337 -4 -348 -2 -11 -7 -36 -11 -55 -4 -19 -8 -42 -10 -50 -8 -43 -82
-164 -132 -217 -88 -93 -175 -144 -297 -173 -252 -61 -531 69 -649 302 -59
119 -66 169 -66 541 l0 327 -450 0 -451 0 2 -367z"/>
</g>
</svg>
