<svg id="AR" xmlns="http://www.w3.org/2000/svg" xmlns:xlink="http://www.w3.org/1999/xlink" viewBox="0 0 70 47"><defs><style>.cls-1{fill:none;}.cls-2{clip-path:url(#clip-path);}.cls-3{fill:#57a863;}.cls-4{fill:#f6d660;}.cls-5{fill:#4758a9;}.cls-6{fill:#f5f7fa;}.cls-7{fill:#fff;}</style><clipPath id="clip-path"><rect id="Rounded_Rectangle_7_copy" data-name="Rounded Rectangle 7 copy" class="cls-1" width="70" height="47" rx="6.36" ry="6.36"/></clipPath></defs><title>BR</title><g class="cls-2"><rect id="Rounded_Rectangle_7_copy-2" data-name="Rounded Rectangle 7 copy" class="cls-3" width="70" height="47"/><path class="cls-4" d="M5.48,23.5,35,4.5l29.52,19L35,42.5Z"/><circle class="cls-5" cx="35" cy="23.5" r="12.65"/><path class="cls-6" d="M46.44,28.92a12.4,12.4,0,0,0,.85-2.37,17.21,17.21,0,0,0-22.67-8.87c-.38.17-.76.35-1.13.55a13.35,13.35,0,0,0-.72,1.91A17.22,17.22,0,0,1,45.9,27.73C46.09,28.12,46.28,28.51,46.44,28.92Z"/><path id="Shape_2_copy" data-name="Shape 2 copy" class="cls-7" d="M38.3,24.25c-.07,0-.11,0-.09-.06l.07-.26a.23.23,0,0,0-.07-.22L38,23.55c-.07-.05-.05-.09,0-.09h.31a.23.23,0,0,0,.19-.13l.1-.29c0-.07.07-.07.09,0l.12.28a.24.24,0,0,0,.2.13h.32c.08,0,.1,0,0,.09l-.24.18a.23.23,0,0,0-.07.22l.08.23c0,.07,0,.1-.09.06l-.25-.14a.25.25,0,0,0-.25,0Z"/><path id="Shape_2_copy-2" data-name="Shape 2 copy" class="cls-7" d="M33.42,27.69c-.07,0-.11,0-.09-.05l.08-.26a.27.27,0,0,0-.08-.22L33.11,27c-.07,0,0-.09,0-.09h.31a.19.19,0,0,0,.19-.13l.1-.28c0-.07.07-.08.1,0l.11.29a.22.22,0,0,0,.2.12h.32c.08,0,.1,0,0,.08l-.24.19a.21.21,0,0,0-.07.21l.08.24c0,.07,0,.09-.09.05l-.25-.13a.28.28,0,0,0-.25,0Z"/><path id="Shape_2_copy-3" data-name="Shape 2 copy" class="cls-7" d="M40.23,29.57c-.07,0-.11,0-.09-.05l.07-.27a.2.2,0,0,0-.08-.21l-.22-.17c-.06-.05,0-.09,0-.09h.31a.23.23,0,0,0,.19-.13l.1-.29c0-.07.06-.07.09,0l.12.28a.21.21,0,0,0,.2.13h.31c.09,0,.1,0,0,.09l-.24.19a.21.21,0,0,0-.07.21l.08.23c0,.07,0,.1-.09.06l-.26-.14a.28.28,0,0,0-.25,0Z"/><path id="Shape_2_copy-4" data-name="Shape 2 copy" class="cls-7" d="M39,33.05c-.06,0-.1,0-.08,0l.07-.27a.2.2,0,0,0-.08-.21l-.22-.17c-.06-.05,0-.09,0-.09h.31a.24.24,0,0,0,.19-.13l.09-.29c0-.07.07-.07.1,0l.11.28a.25.25,0,0,0,.21.13h.31c.08,0,.1,0,0,.09l-.24.19a.19.19,0,0,0-.07.21l.07.23c0,.07,0,.1-.08.06l-.26-.14a.28.28,0,0,0-.25,0Z"/><path id="Shape_2_copy-5" data-name="Shape 2 copy" class="cls-7" d="M42.85,27.26c-.07,0-.1,0-.08-.06l.07-.26a.24.24,0,0,0-.08-.22l-.22-.16c-.06,0,0-.09,0-.09h.3a.24.24,0,0,0,.2-.13l.09-.29c0-.07.07-.07.1,0l.11.28a.28.28,0,0,0,.2.13h.32c.08,0,.1,0,0,.09l-.24.18a.19.19,0,0,0-.07.22l.07.23c0,.07,0,.1-.08.06l-.26-.14a.25.25,0,0,0-.25,0Z"/><path id="Shape_2_copy-6" data-name="Shape 2 copy" class="cls-7" d="M42.74,29.57c-.06,0-.1,0-.08-.05l.07-.26a.22.22,0,0,0-.08-.22l-.22-.17c-.06,0,0-.08,0-.09h.3a.23.23,0,0,0,.2-.14l.09-.28c0-.07.07-.08.1,0l.11.29a.24.24,0,0,0,.2.12h.32c.08,0,.1,0,0,.09l-.24.18a.18.18,0,0,0-.07.21l.07.24c0,.07,0,.09-.08.05l-.26-.13a.28.28,0,0,0-.25,0Z"/><path id="Shape_2_copy-7" data-name="Shape 2 copy" class="cls-7" d="M33,25.5c-.07.05-.1,0-.09-.05l.08-.26a.27.27,0,0,0-.08-.22l-.22-.17c-.06,0,0-.08,0-.09H33a.24.24,0,0,0,.2-.13l.09-.29c0-.07.07-.07.1,0l.11.28a.26.26,0,0,0,.2.13H34c.08,0,.1,0,0,.09L33.8,25a.22.22,0,0,0-.08.22l.08.23q0,.1-.09.06l-.25-.14a.25.25,0,0,0-.25,0Z"/><path id="Shape_2_copy-8" data-name="Shape 2 copy" class="cls-7" d="M27.77,28.31c-.07,0-.11,0-.09,0l.07-.27a.21.21,0,0,0-.07-.21l-.23-.17c-.06-.05,0-.09,0-.09h.31a.21.21,0,0,0,.19-.13l.1-.29c0-.07.06-.07.09,0l.12.28a.21.21,0,0,0,.2.13h.31c.09,0,.1,0,0,.09l-.24.19a.21.21,0,0,0-.07.21l.08.23c0,.07,0,.1-.09.06l-.25-.14a.3.3,0,0,0-.26,0Z"/><path id="Shape_2_copy-9" data-name="Shape 2 copy" class="cls-7" d="M25.24,28.41c-.06,0-.1,0-.08-.05l.07-.27a.2.2,0,0,0-.08-.21l-.22-.17c-.06-.05-.05-.09,0-.09h.31a.22.22,0,0,0,.19-.13l.09-.29c0-.07.07-.07.1,0l.11.28a.23.23,0,0,0,.21.13h.31c.08,0,.1,0,0,.09l-.24.19a.19.19,0,0,0-.07.21l.07.23c0,.07,0,.1-.08.06l-.26-.14a.28.28,0,0,0-.25,0Z"/><path id="Shape_2_copy-10" data-name="Shape 2 copy" class="cls-7" d="M35.35,34.12c-.07,0-.11,0-.09,0l.08-.27a.25.25,0,0,0-.08-.21L35,33.42c-.06-.05,0-.09,0-.09h.31a.21.21,0,0,0,.2-.13l.09-.29c0-.07.07-.07.1,0l.11.29a.23.23,0,0,0,.2.12h.32c.08,0,.1,0,0,.08l-.24.19a.2.2,0,0,0-.08.21l.08.23c0,.07,0,.1-.09.06L35.86,34a.31.31,0,0,0-.25,0Z"/><path id="Shape_2_copy-11" data-name="Shape 2 copy" class="cls-7" d="M40.8,17.75c-.07,0-.11,0-.09-.06l.07-.26a.23.23,0,0,0-.07-.22l-.22-.16c-.07-.05-.05-.09,0-.09h.31a.23.23,0,0,0,.19-.13l.1-.29c0-.07.07-.07.09,0l.12.28a.24.24,0,0,0,.2.13h.32c.08,0,.1,0,0,.09l-.24.18a.23.23,0,0,0-.07.22l.08.23c0,.07,0,.1-.09.06l-.25-.14a.25.25,0,0,0-.25,0Z"/><path id="Shape_2_copy-12" data-name="Shape 2 copy" class="cls-7" d="M27.83,20.88c-.07,0-.11,0-.09-.05l.07-.27a.2.2,0,0,0-.08-.21l-.22-.17c-.06-.05,0-.09,0-.09h.31a.21.21,0,0,0,.19-.13l.1-.29c0-.07.06-.07.09,0l.12.28a.21.21,0,0,0,.2.13h.31c.09,0,.1,0,0,.09l-.24.19a.21.21,0,0,0-.07.21l.08.23c0,.07,0,.1-.09.06l-.26-.14a.31.31,0,0,0-.25,0Z"/><path id="Shape_2_copy-13" data-name="Shape 2 copy" class="cls-7" d="M28.16,30.53c-.07,0-.11,0-.09-.05l.07-.26a.22.22,0,0,0-.08-.22l-.22-.17c-.06,0,0-.08,0-.09h.31a.22.22,0,0,0,.19-.14l.1-.28c0-.07.06-.07.09,0l.12.29a.22.22,0,0,0,.2.12h.31c.09,0,.1,0,0,.09L29,30a.22.22,0,0,0-.07.21l.08.24c0,.07,0,.09-.09.06l-.26-.14a.28.28,0,0,0-.25,0Z"/></g></svg>